<svg id="Capa_1" enable-background="new 0 0 512 512" height="512" viewBox="0 0 512 512" width="512" xmlns="http://www.w3.org/2000/svg"><g><g><path d="m452 180h60v60h-60z"/><path d="m497 0c8.284 0 15 6.716 15 15v45h-60v-60z"/><path d="m497 330h-45v-60h60v45c0 8.284-6.716 15-15 15z"/><path d="m452 90h60v60h-60z"/></g><g><path d="m0 180h60v60h-60z"/><path d="m15 0c-8.284 0-15 6.716-15 15v45h60v-60z"/><path d="m15 330h45v-60h-60v45c0 8.284 6.716 15 15 15z"/><path d="m0 90h60v60h-60z"/></g><g><path d="m383.996 474.497c4.142 7.174 1.684 16.348-5.49 20.49l-25.981 15c-7.174 4.142-16.348 1.684-20.49-5.49l-122.5-212.176 51.962-30z"/><path d="m159.534 205.719c-8.284-14.349-3.368-32.696 10.981-40.981 14.349-8.284 32.696-3.368 40.981 10.981l35 60.622-51.962 30z"/></g><path d="m90 0v330h106.647l-63.093-109.281c-8.014-13.879-10.143-30.048-5.994-45.529 4.147-15.48 14.075-28.419 27.955-36.433 9.113-5.262 19.479-8.043 29.972-8.043 21.383 0 41.304 11.497 51.989 30.005l97.734 169.281h86.79v-330z"/></g></svg>