<svg id="_x33_0" enable-background="new 0 0 64 64" height="512" viewBox="0 0 64 64" width="512" xmlns="http://www.w3.org/2000/svg"><g><g><g><path d="m28.56 57.58 3.44 4.42h-10v-2.46c0-1.63.65-3.19 1.8-4.34.55-.55 1.2-.99 1.91-1.29z" fill="#b4dd7f"/></g><g><path d="m42 59.54v2.46h-10l3.44-4.42 2.85-3.67c.71.3 1.36.74 1.91 1.29 1.15 1.15 1.8 2.71 1.8 4.34z" fill="#b4dd7f"/></g><g><path d="m35.44 57.58-3.44 4.42-3.44-4.42 3.44-2.58z" fill="#e6e9ed"/></g><g><path d="m32 55-3.44 2.58-2.85-3.67c.3-.13.62-.24.94-.32l2.35-.59z" fill="#fcd770"/></g><g><path d="m38.29 53.91-2.85 3.67-3.44-2.58 3-2 2.35.59c.32.08.64.19.94.32z" fill="#fcd770"/></g><g><path d="m48.11 57 3.89 5h-10v-2.46c0-1.63.65-3.19 1.8-4.34.07-.07.14-.13.21-.19.5-.46 1.07-.83 1.7-1.1z" fill="#fcd770"/></g><g><path d="m62 59.54v2.46h-10l3.89-5 2.4-3.09c.63.27 1.2.64 1.7 1.1.07.06.14.12.21.19 1.15 1.15 1.8 2.71 1.8 4.34z" fill="#fcd770"/></g><g><path d="m55.89 57-3.89 5-3.89-5z" fill="#ffeaa7"/></g><g><path d="m19.61 43.18c-.4 1.2-1.09 2.27-2 3.14l-.71.68c.07-.32.1-.66.1-1v-2c0-1.1-.9-2-2-2h-3c-1.01 0-1.86-.76-1.98-1.75-1.78.45-3.02 2.04-3.02 3.87v1.88c0 .34.03.68.1 1l-.71-.68c-.91-.87-1.6-1.94-2-3.14-.26-.78-.39-1.6-.39-2.43v-3.75c0-1.66 1.34-3 3-3h7c.33 0 .65.03.96.08 2.86.46 5.04 2.94 5.04 5.92v.75c0 .83-.13 1.65-.39 2.43z" fill="#b27946"/></g><g><path d="m50.7 40.07-.01.01-.66.16c-1.78.45-3.03 2.05-3.03 3.88v1.88c0 1.91 1.07 3.57 2.65 4.41l-.21.84c-.27 1.08-1.11 1.92-2.19 2.19l-.6.15c-.32.08-.64.19-.94.32-.63.27-1.2.64-1.7 1.1l-.01-.01-.5-4.03c-.33-2.64-.5-5.31-.5-7.97 0-2.48 1.01-4.74 2.64-6.36 1.09-1.1 2.47-1.91 4.01-2.33.75-.2 1.54-.31 2.35-.31 2.48 0 4.74 1.01 6.36 2.64 1.63 1.62 2.64 3.88 2.64 6.36 0 2.66-.17 5.33-.5 7.97l-.5 4.03-.01.01c-.5-.46-1.07-.83-1.7-1.1-.3-.13-.62-.24-.94-.32l-.6-.15c-1.08-.27-1.92-1.11-2.19-2.19l-.21-.84c.44-.23.84-.52 1.19-.87.9-.91 1.46-2.16 1.46-3.54v-2.27c0-.99-.73-1.83-1.72-1.98l-2.31-.33c-.94-.13-1.74-.64-2.27-1.35z" fill="#b27946"/></g><g><path d="m39.61 43.18c-.4 1.2-1.09 2.27-2 3.14l-.71.68c.07-.32.1-.66.1-1v-2.28c0-.43-.28-.81-.68-.95-1.53-.51-2.91-1.36-4.05-2.5l-.27-.27-.27.27c-1.14 1.14-2.52 1.99-4.05 2.5-.4.14-.68.52-.68.95v2.28c0 .34.03.68.1 1l-.71-.68c-.91-.87-1.6-1.94-2-3.14-.26-.78-.39-1.6-.39-2.43v-.75c0-3.31 2.69-6 6-6h2 1.25c1.87 0 3.55.76 4.77 1.98s1.98 2.9 1.98 4.77c0 .83-.13 1.65-.39 2.43z" fill="#656d78"/></g><g><path d="m8.56 57.58 3.44 4.42h-10v-2.46c0-1.63.65-3.19 1.8-4.34.55-.55 1.2-.99 1.91-1.29z" fill="#ccd1d9"/></g><g><path d="m22 59.54v2.46h-10l3.44-4.42 2.85-3.67c.71.3 1.36.74 1.91 1.29 1.15 1.15 1.8 2.71 1.8 4.34z" fill="#ccd1d9"/></g><g><path d="m15.44 57.58-3.44 4.42-3.44-4.42 3.44-2.58z" fill="#fcd770"/></g><g><path d="m12 55-3.44 2.58-2.85-3.67c.3-.13.62-.24.94-.32l2.35-.59z" fill="#fc6e51"/></g><g><path d="m18.29 53.91-2.85 3.67-3.44-2.58 3-2 2.35.59c.32.08.64.19.94.32z" fill="#fc6e51"/></g><g><path d="m12 51 2.35-.59.65 2.59-3 2-3-2 .65-2.59c.7.38 1.5.59 2.35.59z" fill="#f0d0b4"/></g><g><path d="m17 44v2c0 .34-.03.68-.1 1-.2.98-.68 1.86-1.36 2.54-.35.35-.75.64-1.19.87l-2.35.59c-.85 0-1.65-.21-2.35-.59-1.3-.69-2.25-1.93-2.55-3.41-.07-.32-.1-.66-.1-1v-1.88c0-1.83 1.24-3.42 3.02-3.87.12.99.97 1.75 1.98 1.75h3c1.1 0 2 .9 2 2z" fill="#f0d0b4"/></g><g><path d="m37 43.72v2.28c0 .34-.03.68-.1 1-.3 1.48-1.25 2.72-2.55 3.41-.7.38-1.5.59-2.35.59l-2.35-.59c-.44-.23-.84-.52-1.19-.87-.68-.68-1.16-1.56-1.36-2.54-.07-.32-.1-.66-.1-1v-2.28c0-.43.28-.81.68-.95 1.53-.51 2.91-1.36 4.05-2.5l.27-.27.27.27c1.14 1.14 2.52 1.99 4.05 2.5.4.14.68.52.68.95z" fill="#f0d0b4"/></g><g><path d="m35 53-3 2-3-2 .65-2.59 2.35.59c.85 0 1.65-.21 2.35-.59z" fill="#f0d0b4"/></g><g><path d="m47.25 53.44c1.08-.27 1.92-1.11 2.19-2.19l.21-.84c.7.38 1.5.59 2.35.59s1.65-.21 2.35-.59l.21.84c.27 1.08 1.11 1.92 2.19 2.19l.6.15c.32.08.64.19.94.32l-2.4 3.09h-7.78l-2.4-3.09c.3-.13.62-.24.94-.32z" fill="#f0d0b4"/></g><g><path d="m50.7 40.07c.53.71 1.33 1.22 2.27 1.35l2.31.33c.99.15 1.72.99 1.72 1.98v2.27c0 1.38-.56 2.63-1.46 3.54-.35.35-.75.64-1.19.87-.7.38-1.5.59-2.35.59s-1.65-.21-2.35-.59c-1.58-.84-2.65-2.5-2.65-4.41v-1.88c0-1.83 1.25-3.43 3.03-3.88l.66-.16z" fill="#f0d0b4"/></g><g><path d="m17 28h11l4 6h-2c-3.31 0-6 2.69-6 6v-6h-8c-.34 0-.68-.04-1.01-.1-2.27-.47-3.99-2.48-3.99-4.9v-11h6z" fill="#4fc1e9"/></g><g><path d="m47 28v-10h6v11c0 2.24-1.48 4.14-3.51 4.78-.47.14-.97.22-1.49.22h-8v6.75c0-1.87-.76-3.55-1.98-4.77s-2.9-1.98-4.77-1.98h-1.25l4-6z" fill="#4fc1e9"/></g><g><path d="m18.41 13.59c.37.36.59.86.59 1.41 0 .64-.25 1.25-.71 1.71l-1.29 1.29h-6v-5c0-.83.34-1.58.88-2.12s1.29-.88 2.12-.88 1.58.34 2.12.88.88 1.29.88 2.12c.55 0 1.05.22 1.41.59z" fill="#f0d0b4"/></g><g><path d="m53 13v5h-6l-1.29-1.29c-.46-.46-.71-1.07-.71-1.71 0-.55.22-1.05.59-1.41.36-.37.86-.59 1.41-.59 0-.83.34-1.58.88-2.12s1.29-.88 2.12-.88 1.58.34 2.12.88.88 1.29.88 2.12z" fill="#f0d0b4"/></g><g><path d="m36 28-4 6-4-6 .94-4.72 2.21 1.96-.15.76c0 1.1.9 2 2 2h2c.34 0 .67-.09.95-.24z" fill="#f0d0b4"/></g><g><path d="m31.59 24.59c-.19.18-.34.41-.44.65l-2.21-1.96-3.88-3.45c-1.31-1.16-2.06-2.83-2.06-4.59 0-1.43.57-2.81 1.59-3.83.9-.9 2.13-1.41 3.41-1.41s2.51.51 3.41 1.41l.59.59.59-.59c.9-.9 2.13-1.41 3.41-1.41s2.51.51 3.41 1.41c1.02 1.02 1.59 2.4 1.59 3.83 0 1.76-.75 3.43-2.06 4.59l-4.69 4.17h-1.25c-.55 0-1.05.22-1.41.59z" fill="#ff826e"/></g><g><path d="m23 15.24v3.76c0 .55-.45 1-1 1h-2c-.55 0-1-.45-1-1v-4-2c0-.55.45-1 1-1h1 1c.55 0 1 .45 1 1z" fill="#aab2bd"/></g><g><path d="m45 15v4c0 .55-.45 1-1 1h-1-1c-.55 0-1-.45-1-1v-3.76-2.24c0-.55.45-1 1-1h1 1c.55 0 1 .45 1 1z" fill="#aab2bd"/></g><g><path d="m35 24c1.1 0 2 .9 2 2 0 .55-.22 1.05-.59 1.41-.13.14-.29.26-.46.35-.28.15-.61.24-.95.24h-2c-1.1 0-2-.9-2-2l.15-.76c.1-.24.25-.47.44-.65.36-.37.86-.59 1.41-.59h1.25z" fill="#aab2bd"/></g></g><path d="m61.051 54.652.445-3.558c.334-2.678.504-5.401.504-8.094 0-5.366-4.251-9.745-9.561-9.978.967-1.065 1.561-2.474 1.561-4.022v-16c0-2.206-1.794-4-4-4-1.91 0-3.513 1.346-3.907 3.14-.085.027-.163.066-.245.1-.3-.727-1.015-1.24-1.848-1.24h-.051c-.507-5.598-5.221-10-10.949-10h-2c-5.728 0-10.442 4.402-10.949 10h-.051c-.833 0-1.548.513-1.848 1.24-.081-.034-.16-.073-.245-.1-.394-1.794-1.997-3.14-3.907-3.14-2.206 0-4 1.794-4 4v16c0 1.538.586 2.937 1.54 4h-4.54c-2.206 0-4 1.794-4 4v3.752c0 .937.15 1.862.446 2.747.447 1.343 1.226 2.569 2.25 3.544l.509.485c.36 1.362 1.185 2.534 2.298 3.337l-.328 1.31-1.768.442c-1.256.313-2.402.963-3.316 1.877-1.349 1.349-2.091 3.142-2.091 5.048v3.458h62v-3.458c0-1.835-.694-3.561-1.949-4.89zm-43.256-7.123.508-.484c1.025-.976 1.804-2.202 2.251-3.544.296-.887.446-1.812.446-2.749v-.752c0-1.958-.81-3.728-2.111-5h4.111v5 .752c0 .937.15 1.862.446 2.747.447 1.343 1.226 2.569 2.25 3.544l.509.485c.36 1.362 1.185 2.534 2.298 3.337l-.328 1.31-1.768.442c-1.256.313-2.402.963-3.316 1.877-.429.429-.789.906-1.091 1.414-.302-.508-.662-.986-1.091-1.414-.914-.915-2.061-1.564-3.316-1.877l-1.768-.442-.328-1.31c1.113-.802 1.938-1.974 2.298-3.336zm-5.795-28.529h4v8.382l-1.447.724.895 1.789 1.788-.895h10.229l2.667 4h-.132c-1.958 0-3.728.81-5 2.111v-2.111h-9c-2.206 0-4-1.794-4-4zm8 2h2c.766 0 1.425-.438 1.761-1.072.198.228.407.448.636.651l3.454 3.07-.67 3.351h-9.181v-8c0 1.103.897 2 2 2zm26.764 8 1.789.895.895-1.789-1.448-.724v-8.382h4v10c0 2.206-1.794 4-4 4h-9v2.574c-1.294-1.436-3.111-2.386-5.152-2.543l2.687-4.031zm-4.26 22.093.445 3.558c-.366.388-.682.809-.949 1.258-.302-.508-.662-.986-1.091-1.414-.914-.915-2.061-1.564-3.316-1.877l-1.768-.442-.328-1.31c1.113-.802 1.938-1.974 2.298-3.337l.508-.484c1.025-.976 1.804-2.202 2.251-3.544.296-.887.446-1.812.446-2.749v-5.752h5.026c-2.438 1.825-4.026 4.727-4.026 8 0 2.693.17 5.416.504 8.093zm-15.137-9.27c-.817.273-1.367 1.036-1.367 1.898v.539c-.27-.438-.494-.904-.657-1.393-.228-.682-.343-1.393-.343-2.115v-.752c0-2.757 2.243-5 5-5h3.248c3.172 0 5.752 2.581 5.752 5.752 0 .721-.115 1.433-.343 2.115-.163.489-.387.956-.657 1.393v-.539c0-.862-.55-1.625-1.367-1.897-1.368-.456-2.632-1.237-3.652-2.257l-.981-.981-.98.98c-1.021 1.02-2.285 1.801-3.653 2.257zm2.215-16.634.459.408c-.018.133-.041.265-.041.403 0 1.654 1.346 3 3 3h1.132l-2.132 3.197-2.938-4.408zm5.418-.189c.552 0 1 .449 1 1s-.448 1-1 1h-2c-.552 0-1-.449-1-1s.448-1 1-1zm-7 18.721c1.473-.491 2.844-1.291 4-2.329 1.156 1.038 2.527 1.838 4 2.329v2.279c0 2.206-1.794 4-4 4s-4-1.794-4-4zm4 8.279c.576 0 1.132-.086 1.66-.239l.199.798-1.859 1.239-1.859-1.239.199-.798c.528.153 1.084.239 1.66.239zm-3.186 2.078 1.456.97-1.522 1.142-1.365-1.755zm3.186 2.172 2.025 1.519-2.025 2.603-2.025-2.603zm3.253-.06-1.522-1.142 1.456-.971 1.431.358zm10.747-37.19v8h-5c1.654 0 3-1.346 3-3v-3c1.103 0 2-.897 2-2zm-4 2v3c0 .551-.448 1-1 1h-3.184c-.247-.692-.737-1.261-1.371-1.613l3.16-2.808c.228-.203.437-.423.635-.651.335.634.994 1.072 1.76 1.072zm-3.725-1.916-4.405 3.916h-.87c-.769 0-1.464.299-1.996.777l-5.278-4.692c-1.097-.975-1.726-2.376-1.726-3.842 0-1.179.459-2.288 1.293-3.122.713-.712 1.699-1.121 2.707-1.121s1.994.409 2.707 1.121l1.293 1.293 1.293-1.293c.713-.712 1.699-1.121 2.707-1.121s1.994.409 2.707 1.121c.834.834 1.293 1.942 1.293 3.122 0 1.466-.629 2.867-1.725 3.841zm-23.089 34.994 1.431.358-1.365 1.755-1.522-1.142zm-3.186 2.172 2.025 1.519-2.025 2.603-2.025-2.603zm6.567-1.064c.333.207.648.444.928.724.971.97 1.505 2.26 1.505 3.632v1.458h-6.956zm4.433 4.356c0-1.373.534-2.663 1.505-3.633.28-.28.595-.517.928-.724l4.523 5.815h-6.956zm15.567-4.356c.333.207.648.444.928.724.971.97 1.505 2.26 1.505 3.632v1.458h-6.956zm4.433 4.356c0-1.373.534-2.663 1.505-3.633.28-.28.595-.517.928-.724l4.523 5.815h-6.956zm7.155-1.542h3.69l-1.845 2.372zm5.246-2h-6.801l-1.217-1.565.114-.029c1.347-.336 2.403-1.342 2.827-2.65.532.156 1.093.244 1.676.244s1.145-.088 1.678-.243c.423 1.308 1.479 2.313 2.825 2.65l.115.029zm-3.401-6c-2.206 0-4-1.794-4-4v-1.877c0-1.379.935-2.576 2.273-2.91l.082-.021c.657.642 1.514 1.085 2.473 1.222l2.313.331c.49.069.859.495.859.989v2.266c0 2.206-1.794 4-4 4zm8-7c0 2.61-.164 5.25-.488 7.845l-.301 2.405c-.511-.272-1.051-.491-1.617-.633l-.605-.151c-.718-.18-1.275-.737-1.454-1.455l-.037-.146c1.512-1.09 2.502-2.862 2.502-4.865v-2.266c0-1.483-1.107-2.76-2.575-2.969l-2.313-.331c-1.205-.172-2.112-1.218-2.112-2.434v-1h-2v1c0 .501.085.987.242 1.442-1.934.724-3.242 2.575-3.242 4.681v1.877c0 2.003.99 3.775 2.503 4.866l-.036.146c-.18.718-.737 1.275-1.456 1.455l-.604.151c-.567.142-1.107.361-1.618.633l-.301-2.405c-.324-2.596-.488-5.236-.488-7.846 0-4.411 3.589-8 8-8s8 3.589 8 8zm-13-29h1v-1c0-1.103.897-2 2-2s2 .897 2 2v4h-4.586l-1-1c-.268-.267-.414-.622-.414-1 0-.551.448-1 1-1zm-3 .996v.004.003l.001 3.997h-2.001v-6h2zm-13-11.996h2c4.627 0 8.445 3.51 8.942 8.006-.452.013-.862.179-1.191.445-.192-.26-.397-.511-.63-.743-1.085-1.086-2.587-1.708-4.121-1.708-1.478 0-2.926.577-4 1.589-1.074-1.012-2.522-1.589-4-1.589-1.534 0-3.036.622-4.121 1.707-.233.232-.438.484-.63.743-.329-.266-.739-.431-1.191-.445.497-4.495 4.315-8.005 8.942-8.005zm-11 10h2v2.235.007.007l.001 3.751h-2.001zm-6-2c1.103 0 2 .897 2 2v1h1c.552 0 1 .449 1 1 0 .378-.146.733-.414 1l-1 1h-4.586v-4c0-1.103.897-2 2-2zm-8.657 31.867c-.228-.682-.343-1.393-.343-2.115v-3.752c0-1.103.897-2 2-2h7c2.757 0 5 2.243 5 5v.752c0 .721-.115 1.433-.343 2.115-.163.489-.387.956-.657 1.393v-.26c0-1.654-1.346-3-3-3h-3c-.552 0-1-.449-1-1s.448-1 1-1h1v-2h-1c-1.492 0-2.733 1.095-2.962 2.523-1.821.776-3.038 2.571-3.038 4.6v.137c-.27-.438-.494-.904-.657-1.393zm2.657 1.256c0-1.068.563-2.029 1.438-2.563.528.863 1.479 1.44 2.562 1.44h3c.552 0 1 .449 1 1v2c0 2.206-1.794 4-4 4s-4-1.794-4-4zm4 7.877c.576 0 1.132-.086 1.66-.239l.199.798-1.859 1.239-1.859-1.239.199-.798c.528.153 1.084.239 1.66.239zm-3.186 2.078 1.456.97-1.523 1.142-1.365-1.755zm-5.814 5.464c0-1.373.534-2.663 1.505-3.633.28-.28.595-.517.928-.724l4.523 5.815h-6.956zm58 1.458h-6.956l4.523-5.814c.333.207.648.444.928.724.971.97 1.505 2.26 1.505 3.632z"/></g></svg>