<svg width="126" height="75" viewBox="0 0 126 75" fill="none" xmlns="http://www.w3.org/2000/svg">
<path fill-rule="evenodd" clip-rule="evenodd" d="M117.209 1.75507C115.14 3.16458 107.649 8.58692 99.7481 14.3926C98.0639 15.6302 96.1878 16.9778 95.5782 17.3889L94.4692 18.1353L91.2852 15.8363C89.5337 14.572 85.7616 11.8427 82.901 9.77112C69.6986 0.205681 69.7974 0.260145 66.9969 1.10051C65.626 1.51162 39.1598 20.7578 38.3384 21.9409C36.7214 24.2688 36.3006 23.8876 58.6142 40.3073C69.4883 48.3094 81.7262 57.3644 85.8117 60.4312C94.1558 66.695 94.6595 66.9982 96.7359 67.0004C100.434 67.0046 102.682 64.3671 101.012 61.9838C100.734 61.5876 92.1753 55.1359 81.9923 47.6484C58.3408 30.256 49.6075 23.7018 49.7277 23.4348C49.9123 23.0205 68.3778 9.32905 68.654 9.40166C68.8086 9.44117 72.0483 11.7562 75.8534 14.5464C96.2408 29.4925 93.778 28.7397 102.075 22.5635C104.645 20.65 110.828 16.0819 115.815 12.4107C124.517 6.00495 125.955 4.71718 125.671 3.58316C125.599 3.29913 125.529 2.85598 125.513 2.59757C125.364 0.0497789 120.446 -0.449958 117.209 1.75507ZM31.1934 27.7797C30.5881 27.9111 29.6036 28.4108 29.0069 28.8902C28.4087 29.3697 26.0132 31.0846 23.6836 32.6991C19.9601 35.28 17.2512 37.1828 11.5201 41.2416C10.6916 41.8289 8.08141 43.6602 5.7217 45.3121C0.0606842 49.2715 -0.839408 50.8412 1.48024 52.7088C4.67279 55.279 5.85479 54.775 19.2675 45.1124C19.9816 44.5988 22.3985 42.917 24.6395 41.3751C26.8804 39.8331 29.2058 38.2112 29.8068 37.7712C30.4064 37.3313 31.3179 36.6895 31.8317 36.3457L32.7647 35.721L36.106 38.3372C37.9434 39.7755 41.156 42.2784 43.2453 43.9004C45.3331 45.5214 48.2766 47.8086 49.7863 48.9832L52.5296 51.1188L48.7761 53.7884C45.6179 56.034 38.5058 61.1327 28.8423 68.0767C25.3965 70.554 25.1117 72.7975 28.0481 74.333C30.7512 75.7447 31.9304 75.2439 40.5879 69.0046C44.662 66.0682 50.2514 62.0436 53.0075 60.0617C63.2864 52.6682 63.2377 52.712 63.2377 50.8764C63.2377 49.8695 62.1645 48.7387 59.0105 46.4194C57.8929 45.5972 54.6432 43.0868 51.7897 40.8412C48.9363 38.5966 45.8783 36.1908 44.9925 35.4946C44.1067 34.7995 41.6926 32.8849 39.6263 31.2394C34.8739 27.454 34.1212 27.1454 31.1934 27.7797ZM31.3422 47.137C29.3002 48.3938 10.464 61.8642 2.33168 67.8834C0.538643 69.2107 -0.214064 70.2315 0.0521011 70.9758C0.137961 71.2129 0.302521 71.7276 0.418431 72.1194C0.645959 72.8861 2.70516 74.0063 4.15047 74.1515C5.98644 74.3341 7.3516 73.6176 13.0627 69.4702C16.2452 67.1584 21.7818 63.1648 25.3664 60.5956C37.0047 52.2539 37.786 51.6624 38.1724 50.901C39.8925 47.5086 35.0628 44.8465 31.3422 47.137Z" fill="#A40404"/>
</svg>
