<svg width="152" height="29" viewBox="0 0 152 29" fill="none" xmlns="http://www.w3.org/2000/svg">
<path fill-rule="evenodd" clip-rule="evenodd" d="M50.48 3.2579C49.5888 3.74692 46.3624 5.62817 42.9598 7.64241C42.2344 8.07178 41.4264 8.53932 41.1639 8.68195L40.6863 8.9409L39.315 8.14328C38.5606 7.70464 36.936 6.75773 35.704 6.03902C30.018 2.72035 30.0605 2.73924 28.8544 3.0308C28.264 3.17343 16.8654 9.85078 16.5117 10.2613C15.8153 11.0689 15.6341 10.9366 25.2441 16.6333C29.9274 19.4096 35.1981 22.5512 36.9576 23.6152C40.5513 25.7884 40.7682 25.8936 41.6625 25.8943C43.255 25.8958 44.2232 24.9808 43.504 24.1539C43.3844 24.0164 39.6983 21.778 35.3127 19.1803C25.1264 13.1461 21.3651 10.8722 21.4169 10.7795C21.4964 10.6358 29.4492 5.88564 29.5681 5.91084C29.6347 5.92454 31.03 6.72772 32.6687 7.69576C41.4492 12.8812 40.3886 12.62 43.9619 10.4772C45.0688 9.81336 47.7319 8.22849 49.8797 6.95482C53.6274 4.73237 54.2468 4.28558 54.1242 3.89214C54.0934 3.7936 54.0632 3.63985 54.0564 3.5502C53.9923 2.66626 51.874 2.49288 50.48 3.2579ZM13.4345 12.287C13.1738 12.3326 12.7498 12.5059 12.4928 12.6723C12.2351 12.8386 11.2034 13.4336 10.2001 13.9937C8.59648 14.8892 7.42981 15.5493 4.96151 16.9575C4.60467 17.1613 3.48053 17.7966 2.46424 18.3697C0.0261355 19.7434 -0.361518 20.288 0.637512 20.936C2.01249 21.8277 2.52156 21.6528 8.29819 18.3005C8.60572 18.1223 9.64666 17.5388 10.6118 17.0038C11.5769 16.4688 12.5784 15.9061 12.8373 15.7535C13.0955 15.6008 13.4881 15.3782 13.7093 15.2589L14.1112 15.0422L15.5502 15.9498C16.3416 16.4488 17.7252 17.3172 18.625 17.88C19.5242 18.4423 20.7919 19.2359 21.4421 19.6434L22.6236 20.3843L21.007 21.3105C19.6468 22.0896 16.5838 23.8586 12.4219 26.2678C10.9378 27.1273 10.8152 27.9056 12.0798 28.4384C13.244 28.9281 13.7519 28.7544 17.4805 26.5897C19.2351 25.5709 21.6424 24.1746 22.8294 23.487C27.2563 20.9219 27.2354 20.9371 27.2354 20.3002C27.2354 19.9509 26.7732 19.5586 25.4148 18.7539C24.9335 18.4686 23.5339 17.5977 22.305 16.8186C21.076 16.0398 19.759 15.2052 19.3775 14.9636C18.996 14.7225 17.9563 14.0582 17.0664 13.4873C15.0196 12.174 14.6954 12.0669 13.4345 12.287ZM13.4986 19.0029C12.6191 19.4389 4.50668 24.1124 1.00421 26.2007C0.231984 26.6612 -0.0921937 27.0154 0.022439 27.2736C0.0594173 27.3558 0.13029 27.5344 0.180211 27.6704C0.278204 27.9364 1.16507 28.325 1.78754 28.3754C2.57826 28.4387 3.16621 28.1901 5.62588 26.7512C6.99655 25.9492 9.38103 24.5636 10.9249 23.6723C15.9373 20.7782 16.2738 20.5729 16.4402 20.3088C17.181 19.1318 15.101 18.2082 13.4986 19.0029Z" fill="white"/>
<path fill-rule="evenodd" clip-rule="evenodd" d="M112.3 3.31971C112.328 9.67141 112.479 11.8635 112.938 12.6355C114.212 14.7772 117.015 16.2743 121.28 17.0901C122.801 17.3809 124.149 17.5428 124.149 17.4346C124.149 17.4031 124.327 16.8719 124.544 16.2543C124.761 15.6367 124.916 15.1195 124.89 15.1051C124.864 15.0903 124.149 14.968 123.302 14.8335C117.709 13.9437 116.455 12.7093 116.448 8.0895L116.445 5.79704H120.297H124.149V4.59301V3.38898H120.297H116.445V1.81449V0.23999H114.365H112.285L112.3 3.31971ZM73.4581 3.29896C67.0664 3.98099 63.3113 5.36914 61.4858 7.72348C58.9509 10.9932 60.3696 15.7897 64.1852 16.8496C64.8933 17.0463 65.0665 17.0504 73.4199 17.079L81.9323 17.1078V15.8542V14.6005L73.7533 14.5749L65.5749 14.5494L65.1417 14.2578C63.6669 13.2657 64.2098 9.35206 66.0125 7.97169C67.6507 6.71765 73.4988 5.5177 77.4462 5.62551C79.6606 5.6859 80.1616 6.12009 80.158 7.97355C80.1524 10.2856 79.9885 10.3308 71.4939 10.3468L66.6787 10.3557V11.5823V12.8089L67.8577 12.8686C70.697 13.013 77.4376 12.853 79.3413 12.5963C83.1772 12.0787 84.6514 10.5635 84.3396 7.45822C83.9704 3.78168 80.6886 2.5269 73.4581 3.29896ZM89.4401 3.28562C86.3598 3.89912 86.3709 3.8643 86.3937 12.7667L86.4122 19.8749H74.6198H62.8268V20.2454V20.6158H106.97H151.113V20.2454V19.8749H120.837C109.013 19.3216 102.384 19.5517 90.5606 19.8749L90.539 18.7405C90.4638 14.7413 90.5636 5.75814 90.6838 5.68589C90.9069 5.55178 93.729 5.59254 95.2599 5.75147C99.9561 6.23975 103.386 7.40747 104.27 8.8197C105.455 10.7124 105.412 13.631 104.189 14.3223L103.786 14.5494L98.0209 14.5757L92.2554 14.602V15.8564V17.1112L98.4573 17.079C105.923 17.0401 105.968 17.0326 107.537 15.5763C110.471 12.8523 109.622 8.18101 105.773 5.86853C102.527 3.91764 93.4634 2.48429 89.4401 3.28562ZM129.85 4.48816V5.68034L130.428 5.73776C130.746 5.76925 134.39 5.79555 138.527 5.79592C143.406 5.79666 146.153 5.83075 146.346 5.89262C147.83 6.37015 147.915 9.84664 146.487 11.7038C145.2 13.3783 140.768 14.5961 135.397 14.7498C132.108 14.8439 131.622 14.5498 131.622 12.4655C131.622 10.0993 131.762 10.0615 140.674 10.0456L145.104 10.0374V8.78784V7.53787L139.519 7.58196C132.313 7.63901 130.495 7.8524 129.106 8.80377C126.357 10.6854 126.928 15.3037 130.07 16.6055C134.202 18.3171 145.521 16.7185 149.04 13.9262C152.992 10.7917 152.189 4.79492 147.646 3.51531L146.875 3.29822L138.363 3.29711L129.85 3.29637V4.48816ZM131.823 24.6706C130.747 26.0828 129.82 27.311 129.764 27.4002C129.674 27.5443 129.776 27.5621 130.69 27.5621H131.717L132.195 26.9105L132.674 26.2592L134.122 26.2855L135.571 26.3118L136.013 26.9138L136.455 27.5158L137.479 27.5432C138.74 27.5773 138.857 27.887 136.398 24.6995C134.752 22.566 134.34 22.1033 134.087 22.1033C133.833 22.1033 133.433 22.5575 131.823 24.6706ZM92.2098 22.3185C88.2642 23.2002 88.1983 26.8104 92.1149 27.5095C95.5138 28.1164 98.0222 27.295 98.2255 25.509L98.3081 24.7836H96.2836H94.2584V25.2004V25.6172H95.3536H96.4487L96.3495 25.872C95.8965 27.0364 92.8101 27.0716 91.6915 25.9247C90.033 24.2235 93.2051 22.2207 95.6217 23.4432C96.2022 23.7367 96.3877 23.7315 97.0373 23.4014C98.4148 22.7023 94.4612 21.8154 92.2098 22.3185ZM62.8268 24.9225V27.581L65.3309 27.5451C69.4121 27.4866 70.6755 26.7919 70.4992 24.704C70.3458 22.8831 69.2105 22.3548 65.3309 22.2996L62.8268 22.264V24.9225ZM79.0048 24.9688V27.6547H79.9293H80.8538V24.9688V22.2829H79.9293H79.0048V24.9688ZM106.739 24.9688V27.6547H107.663H108.587V24.9688V22.2829H107.663H106.739V24.9688ZM116.754 22.6997V23.1165H117.909H119.065V25.3393V27.5621H120.066H121.068V25.3393V23.1165H122.146H123.225V22.6997V22.2829H119.989H116.754V22.6997ZM146.49 24.9688V27.6547H148.955H151.421V27.1454V26.636H149.88H148.339V24.4594V22.2829H147.415H146.49V24.9688ZM67.3437 23.371C69.7412 24.2105 68.654 26.5356 65.8233 26.6215L64.6757 26.6563V24.8729V23.0895L65.7648 23.1447C66.3946 23.1761 67.0602 23.2717 67.3437 23.371ZM134.57 24.9036L134.909 25.3856L134.212 25.4141C133.306 25.4516 133.296 25.439 133.712 24.8358C134.114 24.2527 134.111 24.2524 134.57 24.9036Z" fill="white"/>
<path fill-rule="evenodd" clip-rule="evenodd" d="M45.3296 9.61777L44.8773 9.91859L45.3783 9.64666C45.6532 9.49699 45.8788 9.3614 45.8788 9.34547C45.8788 9.27397 45.7518 9.33695 45.3296 9.61777ZM22.9214 11.8461C22.9214 11.8621 23.147 11.9977 23.4224 12.1473L23.9229 12.4193L23.4705 12.1184C23.0483 11.8376 22.9214 11.7746 22.9214 11.8461ZM33.8608 21.7562C33.8608 21.7721 34.0864 21.9077 34.3619 22.0574L34.8623 22.3293L34.4099 22.0285C33.9878 21.7477 33.8608 21.6847 33.8608 21.7562ZM37.5586 23.979C37.5586 23.9949 37.7842 24.1305 38.0597 24.2802L38.5601 24.5521L38.1078 24.2513C37.6856 23.9705 37.5586 23.9075 37.5586 23.979Z" fill="#AC0404"/>
</svg>
