<svg width="246" height="77" viewBox="0 0 246 77" fill="none" xmlns="http://www.w3.org/2000/svg">
<path fill-rule="evenodd" clip-rule="evenodd" d="M81.9074 8.14599C80.4614 9.46599 75.2264 14.544 69.7054 19.981C68.5284 21.14 67.2174 22.402 66.7914 22.787L66.0164 23.486L63.7914 21.333C62.5674 20.149 59.9314 17.593 57.9324 15.653C48.7064 6.695 48.7754 6.746 46.8184 7.533C45.8604 7.918 27.3654 25.942 26.7914 27.05C25.6614 29.23 25.3674 28.873 40.9604 44.25C48.5594 51.744 57.1114 60.224 59.9664 63.096C65.7974 68.962 66.1494 69.246 67.6004 69.248C70.1844 69.252 71.7554 66.782 70.5884 64.55C70.3944 64.179 64.4134 58.137 57.2974 51.125C40.7694 34.837 34.6664 28.699 34.7504 28.449C34.8794 28.061 47.7834 15.239 47.9764 15.307C48.0844 15.344 50.3484 17.512 53.0074 20.125C67.2544 34.122 65.5334 33.417 71.3314 27.633C73.1274 25.841 77.4484 21.563 80.9334 18.125C87.0144 12.126 88.0194 10.92 87.8204 9.858C87.7704 9.592 87.7214 9.177 87.7104 8.935C87.6064 6.549 84.1694 6.08099 81.9074 8.14599ZM21.7984 32.518C21.3754 32.641 20.6874 33.109 20.2704 33.558C19.8524 34.007 18.1784 35.613 16.5504 37.125C13.9484 39.542 12.0554 41.324 8.05041 45.125C7.47141 45.675 5.64741 47.39 3.99841 48.937C0.0424068 52.645 -0.58659 54.115 1.03441 55.864C3.26541 58.271 4.09141 57.799 13.4644 48.75C13.9634 48.269 15.6524 46.694 17.2184 45.25C18.7844 43.806 20.4094 42.287 20.8294 41.875C21.2484 41.463 21.8854 40.862 22.2444 40.54L22.8964 39.955L25.2314 42.405C26.5154 43.752 28.7604 46.096 30.2204 47.615C31.6794 49.133 33.7364 51.275 34.7914 52.375L36.7084 54.375L34.0854 56.875C31.8784 58.978 26.9084 63.753 20.1554 70.256C17.7474 72.576 17.5484 74.677 19.6004 76.115C21.4894 77.437 22.3134 76.968 28.3634 71.125C31.2104 68.375 35.1164 64.606 37.0424 62.75C44.2254 55.826 44.1914 55.867 44.1914 54.148C44.1914 53.205 43.4414 52.146 41.2374 49.974C40.4564 49.204 38.1854 46.853 36.1914 44.75C34.1974 42.648 32.0604 40.395 31.4414 39.743C30.8224 39.092 29.1354 37.299 27.6914 35.758C24.3704 32.213 23.8444 31.924 21.7984 32.518ZM21.9024 50.646C20.4754 51.823 7.31241 64.438 1.62941 70.075C0.376411 71.318 -0.149591 72.274 0.0364089 72.971C0.0964089 73.193 0.211406 73.675 0.292406 74.042C0.451406 74.76 1.89041 75.809 2.90041 75.945C4.18341 76.116 5.1374 75.445 9.1284 71.561C11.3524 69.396 15.2214 65.656 17.7264 63.25C25.8594 55.438 26.4054 54.884 26.6754 54.171C27.8774 50.994 24.5024 48.501 21.9024 50.646Z" fill="#A40404"/>
<path fill-rule="evenodd" clip-rule="evenodd" d="M182.214 8.313C182.261 25.458 182.505 31.375 183.25 33.459C185.317 39.24 189.866 43.281 196.785 45.483C199.253 46.268 201.441 46.705 201.441 46.413C201.441 46.328 201.729 44.894 202.081 43.227C202.433 41.56 202.686 40.164 202.643 40.125C202.601 40.085 201.441 39.755 200.066 39.392C190.991 36.99 188.956 33.658 188.946 21.188L188.941 15H195.191H201.441V11.75V8.5H195.191H188.941V4.25V0H185.566H182.191L182.214 8.313ZM119.191 8.257C108.82 10.098 102.727 13.845 99.7654 20.2C95.6524 29.026 97.9544 41.973 104.145 44.834C105.294 45.365 105.575 45.376 119.129 45.453L132.941 45.531V42.147V38.763L119.67 38.694L106.4 38.625L105.697 37.838C103.304 35.16 104.185 24.596 107.11 20.87C109.768 17.485 119.257 14.246 125.662 14.537C129.255 14.7 130.068 15.872 130.062 20.875C130.053 27.116 129.787 27.238 116.004 27.281L108.191 27.305V30.616V33.927L110.104 34.088C114.711 34.478 125.648 34.046 128.737 33.353C134.961 31.956 137.353 27.866 136.847 19.484C136.248 9.55999 130.923 6.173 119.191 8.257ZM145.123 8.22099C140.125 9.87699 140.143 9.783 140.18 33.813L140.21 53H121.076H101.941V54V55H173.566H245.191V54V53H196.066C176.882 51.5067 166.126 52.1275 146.941 53L146.906 49.938C146.784 39.143 146.946 14.895 147.141 14.7C147.503 14.338 152.082 14.448 154.566 14.877C162.186 16.195 167.751 19.347 169.186 23.159C171.109 28.268 171.039 36.146 169.054 38.012L168.401 38.625L159.046 38.696L149.691 38.767V42.153V45.54L159.754 45.453C171.868 45.348 171.941 45.328 174.487 41.397C179.247 34.044 177.87 21.435 171.625 15.193C166.358 9.92699 151.651 6.05799 145.123 8.22099ZM210.691 11.467V14.685L211.629 14.84C212.144 14.925 218.058 14.996 224.77 14.997C232.686 14.999 237.143 15.091 237.457 15.258C239.865 16.547 240.002 25.931 237.686 30.944C235.598 35.464 228.406 38.751 219.691 39.166C214.355 39.42 213.566 38.626 213.566 33C213.566 26.613 213.794 26.511 228.254 26.468L235.441 26.446V23.073V19.699L226.379 19.818C214.688 19.972 211.737 20.548 209.483 23.116C205.023 28.195 205.95 40.661 211.048 44.175C217.752 48.795 236.118 44.48 241.828 36.943C248.24 28.482 246.937 12.295 239.566 8.841L238.316 8.255L224.504 8.252L210.691 8.25V11.467ZM213.892 65.945C212.146 69.757 210.643 73.072 210.552 73.313C210.406 73.702 210.571 73.75 212.054 73.75H213.72L214.496 71.991L215.273 70.233L217.623 70.304L219.973 70.375L220.691 72L221.408 73.625L223.07 73.699C225.115 73.791 225.306 74.627 221.316 66.023C218.645 60.264 217.977 59.015 217.566 59.015C217.154 59.015 216.505 60.241 213.892 65.945ZM149.617 59.596C143.215 61.976 143.108 71.721 149.463 73.608C154.978 75.246 159.048 73.029 159.378 68.208L159.512 66.25H156.227H152.941V67.375V68.5H154.718H156.495L156.334 69.188C155.599 72.331 150.591 72.426 148.776 69.33C146.085 64.738 151.232 59.332 155.153 62.632C156.095 63.424 156.396 63.41 157.45 62.519C159.685 60.632 153.27 58.238 149.617 59.596ZM101.941 66.625V73.801L106.004 73.704C112.626 73.546 114.676 71.671 114.39 66.035C114.141 61.12 112.299 59.694 106.004 59.545L101.941 59.449V66.625ZM128.191 66.75V74H129.691H131.191V66.75V59.5H129.691H128.191V66.75ZM173.191 66.75V74H174.691H176.191V66.75V59.5H174.691H173.191V66.75ZM189.441 60.625V61.75H191.316H193.191V67.75V73.75H194.816H196.441V67.75V61.75H198.191H199.941V60.625V59.5H194.691H189.441V60.625ZM237.691 66.75V74H241.691H245.691V72.625V71.25H243.191H240.691V65.375V59.5H239.191H237.691V66.75ZM109.27 62.437C113.16 64.703 111.396 70.979 106.803 71.211L104.941 71.305V66.491V61.677L106.708 61.826C107.73 61.911 108.81 62.169 109.27 62.437ZM218.349 66.574L218.9 67.875L217.769 67.952C216.299 68.053 216.282 68.019 216.957 66.391C217.609 64.817 217.604 64.816 218.349 66.574Z" fill="#040404"/>
<path fill-rule="evenodd" clip-rule="evenodd" d="M73.5504 25.313L72.8164 26.125L73.6294 25.391C74.0754 24.987 74.4414 24.621 74.4414 24.578C74.4414 24.385 74.2354 24.555 73.5504 25.313ZM37.1914 31.328C37.1914 31.371 37.5574 31.737 38.0044 32.141L38.8164 32.875L38.0824 32.063C37.3974 31.305 37.1914 31.135 37.1914 31.328ZM54.9414 58.078C54.9414 58.121 55.3074 58.487 55.7544 58.891L56.5664 59.625L55.8324 58.813C55.1474 58.055 54.9414 57.885 54.9414 58.078ZM60.9414 64.078C60.9414 64.121 61.3074 64.487 61.7544 64.891L62.5664 65.625L61.8324 64.813C61.1474 64.055 60.9414 63.885 60.9414 64.078Z" fill="#AC0404"/>
</svg>
